<svg width="910" height="626" viewBox="0 0 910 626" fill="none" xmlns="http://www.w3.org/2000/svg">
<g filter="url(#filter0_d_1_30)">
<rect x="35" y="35" width="813" height="564" rx="30" fill="url(#paint0_linear_1_30)"/>
<rect x="80" y="307" width="678" height="50" rx="25" fill="white"/>
<rect x="80" y="307" width="678" height="50" rx="25" fill="white"/>
<rect x="80" y="307" width="680" height="50" rx="25" fill="white"/>
<rect x="81" y="404" width="550" height="50" rx="25" fill="white"/>
<rect x="81" y="501" width="400" height="50" rx="25" fill="white"/>
<path d="M200.458 139.399L174.982 141.915C171.939 142.216 171.244 146.343 174.02 147.625L188.822 154.456C189.574 154.803 190.149 155.446 190.41 156.231L193.446 165.339C194.418 168.253 198.622 167.997 199.233 164.986L203.693 142.981C204.094 141.003 202.467 139.201 200.458 139.399Z" fill="white" stroke="white"/>
<path d="M72 212L117.722 177.66C120.065 175.9 123.413 176.524 124.965 179.009L133.452 192.596C135.085 195.21 138.671 195.738 140.988 193.707L192 149" stroke="white" stroke-width="10"/>
<circle cx="72" cy="212" r="5" fill="white"/>
<path d="M249.799 236.364V122.727H257.078V236.364H249.799ZM272.57 157.972C272.097 153.77 270.144 150.515 266.711 148.207C263.278 145.869 258.958 144.7 253.749 144.7C250.021 144.7 246.795 145.292 244.072 146.475C241.35 147.63 239.234 149.228 237.725 151.27C236.245 153.282 235.505 155.575 235.505 158.15C235.505 160.31 236.008 162.174 237.015 163.743C238.05 165.311 239.397 166.628 241.054 167.694C242.741 168.729 244.546 169.602 246.469 170.312C248.393 170.993 250.243 171.555 252.018 171.999L260.896 174.308C263.796 175.018 266.77 175.98 269.818 177.193C272.866 178.406 275.692 180.004 278.297 181.987C280.901 183.97 283.002 186.426 284.6 189.355C286.227 192.285 287.041 195.792 287.041 199.876C287.041 205.025 285.71 209.597 283.046 213.592C280.412 217.587 276.58 220.739 271.549 223.047C266.548 225.355 260.496 226.509 253.394 226.509C246.588 226.509 240.699 225.429 235.727 223.269C230.756 221.109 226.864 218.046 224.053 214.08C221.242 210.085 219.688 205.35 219.392 199.876H233.153C233.419 203.161 234.484 205.898 236.349 208.088C238.243 210.248 240.654 211.861 243.584 212.926C246.543 213.962 249.784 214.48 253.305 214.48C257.182 214.48 260.63 213.873 263.648 212.66C266.696 211.417 269.093 209.701 270.839 207.511C272.585 205.291 273.458 202.702 273.458 199.743C273.458 197.05 272.689 194.845 271.15 193.129C269.641 191.412 267.584 189.992 264.98 188.867C262.405 187.743 259.49 186.751 256.235 185.893L245.493 182.963C238.213 180.981 232.442 178.066 228.181 174.219C223.949 170.372 221.833 165.282 221.833 158.949C221.833 153.711 223.254 149.139 226.095 145.233C228.936 141.326 232.783 138.293 237.636 136.133C242.489 133.943 247.964 132.848 254.06 132.848C260.215 132.848 265.646 133.928 270.351 136.088C275.086 138.249 278.814 141.223 281.537 145.011C284.259 148.769 285.68 153.089 285.798 157.972H272.57ZM336.679 134.091V225H322.919V147.852H322.386L300.635 162.056V148.917L323.318 134.091H336.679ZM361.271 225V215.057L392.033 183.185C395.318 179.723 398.025 176.69 400.156 174.086C402.316 171.452 403.929 168.951 404.994 166.584C406.06 164.216 406.592 161.701 406.592 159.038C406.592 156.019 405.882 153.415 404.462 151.225C403.041 149.006 401.103 147.304 398.647 146.12C396.191 144.907 393.424 144.3 390.346 144.3C387.091 144.3 384.25 144.966 381.823 146.298C379.397 147.63 377.532 149.509 376.23 151.935C374.928 154.362 374.277 157.203 374.277 160.458H361.182C361.182 154.924 362.455 150.086 365 145.943C367.545 141.8 371.037 138.589 375.476 136.31C379.915 134.002 384.96 132.848 390.612 132.848C396.324 132.848 401.354 133.987 405.705 136.266C410.084 138.515 413.502 141.593 415.959 145.499C418.415 149.376 419.643 153.755 419.643 158.638C419.643 162.012 419.007 165.311 417.734 168.537C416.491 171.763 414.316 175.358 411.209 179.324C408.102 183.259 403.781 188.039 398.247 193.661L380.181 212.571V213.237H421.108V225H361.271ZM455.376 212.571L454.71 217.409C454.266 220.961 453.512 224.66 452.446 228.507C451.411 232.383 450.331 235.979 449.206 239.293C448.111 242.608 447.209 245.241 446.498 247.195H437.088C437.473 245.36 438.005 242.874 438.686 239.737C439.366 236.63 440.032 233.153 440.683 229.306C441.334 225.459 441.823 221.538 442.148 217.543L442.592 212.571H455.376ZM502.296 226.509C495.282 226.48 489.29 224.63 484.318 220.961C479.346 217.291 475.544 211.95 472.91 204.936C470.276 197.923 468.959 189.474 468.959 179.59C468.959 169.735 470.276 161.316 472.91 154.332C475.573 147.348 479.391 142.022 484.362 138.352C489.363 134.683 495.341 132.848 502.296 132.848C509.25 132.848 515.213 134.698 520.184 138.397C525.156 142.066 528.959 147.393 531.592 154.377C534.256 161.331 535.587 169.735 535.587 179.59C535.587 189.503 534.271 197.967 531.637 204.98C529.003 211.964 525.2 217.306 520.229 221.005C515.257 224.674 509.279 226.509 502.296 226.509ZM502.296 214.657C508.451 214.657 513.26 211.654 516.722 205.646C520.214 199.639 521.96 190.953 521.96 179.59C521.96 172.044 521.161 165.666 519.563 160.458C517.995 155.22 515.731 151.255 512.771 148.562C509.842 145.839 506.35 144.478 502.296 144.478C496.17 144.478 491.361 147.496 487.869 153.533C484.377 159.57 482.616 168.256 482.587 179.59C482.587 187.166 483.371 193.572 484.939 198.81C486.537 204.019 488.801 207.969 491.731 210.662C494.661 213.326 498.182 214.657 502.296 214.657ZM582.984 226.509C575.971 226.48 569.978 224.63 565.006 220.961C560.035 217.291 556.232 211.95 553.598 204.936C550.965 197.923 549.648 189.474 549.648 179.59C549.648 169.735 550.965 161.316 553.598 154.332C556.262 147.348 560.079 142.022 565.051 138.352C570.052 134.683 576.03 132.848 582.984 132.848C589.938 132.848 595.901 134.698 600.873 138.397C605.844 142.066 609.647 147.393 612.281 154.377C614.944 161.331 616.276 169.735 616.276 179.59C616.276 189.503 614.959 197.967 612.325 204.98C609.692 211.964 605.889 217.306 600.917 221.005C595.946 224.674 589.968 226.509 582.984 226.509ZM582.984 214.657C589.139 214.657 593.948 211.654 597.411 205.646C600.902 199.639 602.648 190.953 602.648 179.59C602.648 172.044 601.849 165.666 600.251 160.458C598.683 155.22 596.419 151.255 593.46 148.562C590.53 145.839 587.038 144.478 582.984 144.478C576.858 144.478 572.049 147.496 568.558 153.533C565.066 159.57 563.305 168.256 563.275 179.59C563.275 187.166 564.059 193.572 565.628 198.81C567.226 204.019 569.49 207.969 572.419 210.662C575.349 213.326 578.871 214.657 582.984 214.657ZM663.672 226.509C656.659 226.48 650.666 224.63 645.695 220.961C640.723 217.291 636.921 211.95 634.287 204.936C631.653 197.923 630.336 189.474 630.336 179.59C630.336 169.735 631.653 161.316 634.287 154.332C636.95 147.348 640.768 142.022 645.739 138.352C650.74 134.683 656.718 132.848 663.672 132.848C670.627 132.848 676.59 134.698 681.561 138.397C686.533 142.066 690.336 147.393 692.969 154.377C695.633 161.331 696.964 169.735 696.964 179.59C696.964 189.503 695.648 197.967 693.014 204.98C690.38 211.964 686.577 217.306 681.606 221.005C676.634 224.674 670.656 226.509 663.672 226.509ZM663.672 214.657C669.828 214.657 674.637 211.654 678.099 205.646C681.591 199.639 683.337 190.953 683.337 179.59C683.337 172.044 682.538 165.666 680.94 160.458C679.371 155.22 677.108 151.255 674.148 148.562C671.219 145.839 667.727 144.478 663.672 144.478C657.547 144.478 652.738 147.496 649.246 153.533C645.754 159.57 643.993 168.256 643.964 179.59C643.964 187.166 644.748 193.572 646.316 198.81C647.914 204.019 650.178 207.969 653.108 210.662C656.038 213.326 659.559 214.657 663.672 214.657Z" fill="white"/>
</g>
<defs>
<filter id="filter0_d_1_30" x="-4" y="0" width="918" height="634" filterUnits="userSpaceOnUse" color-interpolation-filters="sRGB">
<feFlood flood-opacity="0" result="BackgroundImageFix"/>
<feColorMatrix in="SourceAlpha" type="matrix" values="0 0 0 0 0 0 0 0 0 0 0 0 0 0 0 0 0 0 127 0" result="hardAlpha"/>
<feOffset dy="4"/>
<feGaussianBlur stdDeviation="2"/>
<feComposite in2="hardAlpha" operator="out"/>
<feColorMatrix type="matrix" values="0 0 0 0 0 0 0 0 0 0 0 0 0 0 0 0 0 0 0.25 0"/>
<feBlend mode="normal" in2="BackgroundImageFix" result="effect1_dropShadow_1_30"/>
<feBlend mode="normal" in="SourceGraphic" in2="effect1_dropShadow_1_30" result="shape"/>
</filter>
<linearGradient id="paint0_linear_1_30" x1="441.5" y1="35" x2="441.5" y2="599" gradientUnits="userSpaceOnUse">
<stop offset="0.215" stop-color="#F18643"/>
<stop offset="1.0001" stop-color="#FF4D26"/>
</linearGradient>
</defs>
</svg>
