<svg width="873" height="374" viewBox="0 0 873 374" fill="none" xmlns="http://www.w3.org/2000/svg">
<g clip-path="url(#clip0_1_25)">
<rect x="-27" y="29" width="843" height="328" rx="30" fill="url(#paint0_linear_1_25)"/>
<rect x="29" y="169" width="703" height="48" rx="24" fill="white"/>
<rect x="29" y="253" width="449" height="48" rx="24" fill="white"/>
<path d="M314.761 102.688V98.9091H337.276V102.688H328.199V128H323.824V102.688H314.761ZM339.644 128V106.182H343.749V109.648H343.977C344.374 108.473 345.075 107.55 346.079 106.878C347.092 106.196 348.238 105.855 349.516 105.855C349.781 105.855 350.094 105.865 350.454 105.884C350.823 105.902 351.112 105.926 351.32 105.955V110.017C351.15 109.97 350.847 109.918 350.411 109.861C349.976 109.795 349.54 109.761 349.104 109.761C348.101 109.761 347.206 109.974 346.42 110.401C345.643 110.817 345.028 111.4 344.573 112.148C344.119 112.886 343.891 113.729 343.891 114.676V128H339.644ZM361.15 128.483C359.767 128.483 358.517 128.227 357.4 127.716C356.282 127.195 355.397 126.442 354.744 125.457C354.1 124.473 353.778 123.265 353.778 121.835C353.778 120.604 354.014 119.591 354.488 118.795C354.961 118 355.601 117.37 356.406 116.906C357.21 116.442 358.11 116.092 359.104 115.855C360.099 115.618 361.112 115.438 362.144 115.315C363.451 115.164 364.512 115.041 365.326 114.946C366.14 114.842 366.732 114.676 367.102 114.449C367.471 114.222 367.656 113.852 367.656 113.341V113.241C367.656 112.001 367.305 111.04 366.604 110.358C365.913 109.676 364.881 109.335 363.508 109.335C362.078 109.335 360.951 109.652 360.127 110.287C359.313 110.912 358.749 111.608 358.437 112.375L354.445 111.466C354.919 110.14 355.61 109.07 356.519 108.256C357.438 107.432 358.494 106.835 359.687 106.466C360.88 106.087 362.135 105.898 363.451 105.898C364.322 105.898 365.246 106.002 366.221 106.21C367.206 106.409 368.124 106.778 368.977 107.318C369.838 107.858 370.544 108.63 371.093 109.634C371.642 110.628 371.917 111.92 371.917 113.511V128H367.769V125.017H367.599C367.324 125.566 366.912 126.106 366.363 126.636C365.814 127.167 365.108 127.607 364.246 127.957C363.385 128.308 362.353 128.483 361.15 128.483ZM362.073 125.074C363.247 125.074 364.251 124.842 365.085 124.378C365.927 123.914 366.567 123.308 367.002 122.56C367.447 121.802 367.67 120.992 367.67 120.131V117.318C367.518 117.47 367.225 117.612 366.789 117.744C366.363 117.867 365.875 117.976 365.326 118.071C364.777 118.156 364.242 118.237 363.721 118.312C363.2 118.379 362.764 118.436 362.414 118.483C361.59 118.587 360.837 118.762 360.156 119.009C359.483 119.255 358.943 119.61 358.536 120.074C358.138 120.528 357.94 121.134 357.94 121.892C357.94 122.943 358.328 123.739 359.104 124.278C359.881 124.809 360.871 125.074 362.073 125.074ZM387.957 106.182V109.591H375.628V106.182H387.957ZM379.009 128V103.653C379.009 102.29 379.307 101.158 379.903 100.259C380.5 99.3494 381.291 98.6723 382.276 98.2273C383.26 97.7727 384.33 97.5455 385.486 97.5455C386.338 97.5455 387.067 97.6165 387.673 97.7585C388.279 97.8911 388.729 98.0142 389.023 98.1278L388.028 101.565C387.83 101.509 387.574 101.442 387.261 101.366C386.949 101.281 386.57 101.239 386.125 101.239C385.093 101.239 384.354 101.494 383.909 102.006C383.473 102.517 383.256 103.256 383.256 104.222V128H379.009ZM402.723 106.182V109.591H390.393V106.182H402.723ZM393.774 128V103.653C393.774 102.29 394.072 101.158 394.669 100.259C395.266 99.3494 396.056 98.6723 397.041 98.2273C398.026 97.7727 399.096 97.5455 400.251 97.5455C401.104 97.5455 401.833 97.6165 402.439 97.7585C403.045 97.8911 403.495 98.0142 403.788 98.1278L402.794 101.565C402.595 101.509 402.339 101.442 402.027 101.366C401.714 101.281 401.336 101.239 400.891 101.239C399.858 101.239 399.12 101.494 398.675 102.006C398.239 102.517 398.021 103.256 398.021 104.222V128H393.774ZM407.105 128V106.182H411.352V128H407.105ZM409.25 102.815C408.511 102.815 407.877 102.569 407.347 102.077C406.826 101.575 406.565 100.978 406.565 100.287C406.565 99.5862 406.826 98.9896 407.347 98.4972C407.877 97.9953 408.511 97.7443 409.25 97.7443C409.989 97.7443 410.618 97.9953 411.139 98.4972C411.67 98.9896 411.935 99.5862 411.935 100.287C411.935 100.978 411.67 101.575 411.139 102.077C410.618 102.569 409.989 102.815 409.25 102.815ZM426.256 128.44C424.145 128.44 422.326 127.962 420.802 127.006C419.287 126.04 418.122 124.709 417.308 123.014C416.493 121.319 416.086 119.378 416.086 117.19C416.086 114.974 416.503 113.019 417.336 111.324C418.169 109.619 419.344 108.289 420.859 107.332C422.374 106.376 424.159 105.898 426.214 105.898C427.871 105.898 429.348 106.205 430.646 106.821C431.943 107.427 432.989 108.279 433.785 109.378C434.59 110.476 435.068 111.759 435.219 113.227H431.086C430.859 112.205 430.338 111.324 429.523 110.585C428.719 109.847 427.639 109.477 426.285 109.477C425.101 109.477 424.064 109.79 423.174 110.415C422.293 111.03 421.607 111.911 421.114 113.057C420.622 114.193 420.376 115.538 420.376 117.091C420.376 118.682 420.617 120.055 421.1 121.21C421.583 122.366 422.265 123.26 423.146 123.895C424.036 124.529 425.082 124.847 426.285 124.847C427.09 124.847 427.819 124.7 428.472 124.406C429.135 124.103 429.689 123.672 430.134 123.114C430.589 122.555 430.906 121.883 431.086 121.097H435.219C435.068 122.508 434.609 123.767 433.842 124.875C433.075 125.983 432.047 126.854 430.759 127.489C429.481 128.123 427.98 128.44 426.256 128.44ZM458.898 123.114V103.909H462.719V123.114H458.898ZM451.214 115.415V111.608H470.418V115.415H451.214ZM487.968 98.9091V128H483.565V103.312H483.394L476.434 107.858V103.653L483.692 98.9091H487.968ZM505.965 128.483C503.721 128.473 501.803 127.882 500.212 126.707C498.621 125.533 497.405 123.824 496.562 121.58C495.719 119.335 495.298 116.632 495.298 113.469C495.298 110.315 495.719 107.621 496.562 105.386C497.414 103.152 498.636 101.447 500.227 100.273C501.827 99.0985 503.74 98.5114 505.965 98.5114C508.191 98.5114 510.099 99.1032 511.69 100.287C513.281 101.461 514.497 103.166 515.34 105.401C516.192 107.626 516.619 110.315 516.619 113.469C516.619 116.641 516.197 119.349 515.354 121.594C514.512 123.829 513.295 125.538 511.704 126.722C510.113 127.896 508.2 128.483 505.965 128.483ZM505.965 124.69C507.935 124.69 509.474 123.729 510.582 121.807C511.699 119.884 512.258 117.105 512.258 113.469C512.258 111.054 512.002 109.013 511.491 107.347C510.989 105.67 510.264 104.402 509.317 103.54C508.38 102.669 507.263 102.233 505.965 102.233C504.005 102.233 502.466 103.199 501.349 105.131C500.231 107.062 499.668 109.842 499.658 113.469C499.658 115.893 499.909 117.943 500.411 119.619C500.923 121.286 501.647 122.55 502.585 123.412C503.522 124.264 504.649 124.69 505.965 124.69ZM526.185 124.023L525.972 125.571C525.83 126.707 525.589 127.891 525.248 129.122C524.916 130.363 524.571 131.513 524.211 132.574C523.861 133.634 523.572 134.477 523.344 135.102H520.333C520.456 134.515 520.627 133.72 520.844 132.716C521.062 131.722 521.275 130.609 521.484 129.378C521.692 128.147 521.848 126.892 521.952 125.614L522.094 124.023H526.185ZM541.2 128.483C538.955 128.473 537.038 127.882 535.447 126.707C533.856 125.533 532.639 123.824 531.796 121.58C530.953 119.335 530.532 116.632 530.532 113.469C530.532 110.315 530.953 107.621 531.796 105.386C532.648 103.152 533.87 101.447 535.461 100.273C537.061 99.0985 538.974 98.5114 541.2 98.5114C543.425 98.5114 545.333 99.1032 546.924 100.287C548.515 101.461 549.732 103.166 550.575 105.401C551.427 107.626 551.853 110.315 551.853 113.469C551.853 116.641 551.432 119.349 550.589 121.594C549.746 123.829 548.529 125.538 546.938 126.722C545.347 127.896 543.434 128.483 541.2 128.483ZM541.2 124.69C543.169 124.69 544.708 123.729 545.816 121.807C546.933 119.884 547.492 117.105 547.492 113.469C547.492 111.054 547.237 109.013 546.725 107.347C546.223 105.67 545.499 104.402 544.552 103.54C543.614 102.669 542.497 102.233 541.2 102.233C539.239 102.233 537.701 103.199 536.583 105.131C535.466 107.062 534.902 109.842 534.893 113.469C534.893 115.893 535.144 117.943 535.646 119.619C536.157 121.286 536.881 122.55 537.819 123.412C538.756 124.264 539.883 124.69 541.2 124.69ZM567.02 128.483C564.776 128.473 562.858 127.882 561.267 126.707C559.676 125.533 558.459 123.824 557.616 121.58C556.774 119.335 556.352 116.632 556.352 113.469C556.352 110.315 556.774 107.621 557.616 105.386C558.469 103.152 559.69 101.447 561.281 100.273C562.882 99.0985 564.795 98.5114 567.02 98.5114C569.245 98.5114 571.153 99.1032 572.744 100.287C574.335 101.461 575.552 103.166 576.395 105.401C577.247 107.626 577.673 110.315 577.673 113.469C577.673 116.641 577.252 119.349 576.409 121.594C575.566 123.829 574.349 125.538 572.759 126.722C571.168 127.896 569.255 128.483 567.02 128.483ZM567.02 124.69C568.99 124.69 570.528 123.729 571.636 121.807C572.754 119.884 573.312 117.105 573.312 113.469C573.312 111.054 573.057 109.013 572.545 107.347C572.044 105.67 571.319 104.402 570.372 103.54C569.435 102.669 568.317 102.233 567.02 102.233C565.06 102.233 563.521 103.199 562.403 105.131C561.286 107.062 560.723 109.842 560.713 113.469C560.713 115.893 560.964 117.943 561.466 119.619C561.977 121.286 562.702 122.55 563.639 123.412C564.577 124.264 565.704 124.69 567.02 124.69ZM592.84 128.483C590.596 128.473 588.678 127.882 587.087 126.707C585.496 125.533 584.28 123.824 583.437 121.58C582.594 119.335 582.173 116.632 582.173 113.469C582.173 110.315 582.594 107.621 583.437 105.386C584.289 103.152 585.511 101.447 587.102 100.273C588.702 99.0985 590.615 98.5114 592.84 98.5114C595.066 98.5114 596.974 99.1032 598.565 100.287C600.156 101.461 601.372 103.166 602.215 105.401C603.067 107.626 603.494 110.315 603.494 113.469C603.494 116.641 603.072 119.349 602.229 121.594C601.387 123.829 600.17 125.538 598.579 126.722C596.988 127.896 595.075 128.483 592.84 128.483ZM592.84 124.69C594.81 124.69 596.349 123.729 597.457 121.807C598.574 119.884 599.133 117.105 599.133 113.469C599.133 111.054 598.877 109.013 598.366 107.347C597.864 105.67 597.139 104.402 596.192 103.54C595.255 102.669 594.138 102.233 592.84 102.233C590.88 102.233 589.341 103.199 588.224 105.131C587.106 107.062 586.543 109.842 586.533 113.469C586.533 115.893 586.784 117.943 587.286 119.619C587.798 121.286 588.522 122.55 589.46 123.412C590.397 124.264 591.524 124.69 592.84 124.69Z" fill="white"/>
</g>
<defs>
<linearGradient id="paint0_linear_1_25" x1="394.5" y1="29" x2="394.5" y2="357" gradientUnits="userSpaceOnUse">
<stop offset="0.215" stop-color="#F18643"/>
<stop offset="1.0001" stop-color="#EB4E2B"/>
</linearGradient>
<clipPath id="clip0_1_25">
<rect width="873" height="385" fill="white" transform="translate(0 -11)"/>
</clipPath>
</defs>
</svg>
