<svg xmlns="http://www.w3.org/2000/svg" width="267" height="396" fill="none">
    <g filter="url(#a)">
        <rect width="235" height="364" x="16" y="3" fill="#fff" rx="12" />
        <circle cx="68" cy="49" r="16" fill="#53B1FD" />
        <path fill="#fff"
            d="m74.115 41.088-5.47-.965c-1.077-.189-1.965-.046-2.64.426-.675.473-1.112 1.258-1.301 2.334l-.09.512-2.733.48c-2.161.385-3.14 1.787-2.756 3.947l1.286 7.295c.187 1.076.622 1.861 1.295 2.334.482.337 1.072.507 1.763.507.276 0 .57-.027.88-.082l5.475-.964c1.556-.282 2.257-1.034 2.569-1.758.04.001.086.012.125.012 1.667 0 2.745-.985 3.073-2.841l1.286-7.295c.38-2.16-.6-3.56-2.761-3.942zm-4.51 14.594-5.474.963c-.74.13-1.314.058-1.706-.218-.392-.275-.654-.787-.782-1.526l-1.288-7.298c-.263-1.486.259-2.233 1.744-2.497l2.283-.402-.965 5.474c-.38 2.162.6 3.562 2.76 3.943l4.875.859c-.232.274-.65.557-1.447.702zm6.04-10.869-1.285 7.295c-.263 1.487-1.008 2.01-2.495 1.747l-5.471-.965c-1.486-.262-2.009-1.008-1.747-2.494l1.287-7.295c.13-.739.396-1.253.788-1.528.268-.186.618-.28 1.048-.28.201 0 .421.02.658.062l5.47.965c1.487.26 2.01 1.007 1.748 2.493zm-2.148 3.383a.624.624 0 0 1-.723.507l-5.471-.965a.624.624 0 1 1 .217-1.23l5.47.964c.34.06.567.383.507.724zm.584-2.718a.624.624 0 0 1-.724.507l-5.47-.965a.624.624 0 1 1 .216-1.23l5.47.964c.34.06.568.384.508.724zm-3.12 5.102a.624.624 0 0 1-.723.508l-3.42-.604a.624.624 0 1 1 .217-1.23l3.42.603c.34.059.566.383.506.723z" />
        <path fill="#000"
            d="M99.666 43.818h1.541v6.697c0 .712-.167 1.344-.502 1.894a3.504 3.504 0 0 1-1.412 1.293c-.606.311-1.317.467-2.133.467-.811 0-1.52-.156-2.127-.467a3.51 3.51 0 0 1-1.412-1.293c-.335-.55-.502-1.181-.502-1.894v-6.697h1.536v6.573c0 .46.1.87.303 1.228.206.358.496.64.87.845.375.202.819.303 1.332.303.518 0 .963-.101 1.338-.303.378-.206.666-.487.865-.845.202-.358.303-.768.303-1.228v-6.573zm4.844 0 2.436 3.982h.079l2.436-3.982h1.78l-3.172 5.091L111.261 54h-1.79l-2.446-3.928h-.079L104.5 54h-1.79l3.246-5.09-3.226-5.092h1.78zM117.33 54h-1.63l3.664-10.182h1.774L124.803 54h-1.631l-2.879-8.332h-.079L117.33 54zm.274-3.987h5.289v1.292h-5.289v-1.292zm13.387.82v-4.47h1.491V54h-1.461v-1.322h-.08a2.376 2.376 0 0 1-.845 1.019c-.384.268-.863.402-1.437.402-.49 0-.924-.107-1.302-.323a2.265 2.265 0 0 1-.885-.97c-.212-.427-.318-.955-.318-1.585v-4.857h1.486v4.678c0 .52.144.935.433 1.243.288.308.662.462 1.123.462.279 0 .555-.07.83-.209.279-.139.509-.35.692-.631.185-.282.276-.64.273-1.074zm6.347 3.316a2.958 2.958 0 0 1-1.65-.472c-.481-.318-.859-.77-1.134-1.357-.271-.59-.407-1.298-.407-2.123 0-.826.137-1.532.412-2.118.279-.587.66-1.036 1.144-1.348a2.973 2.973 0 0 1 1.645-.467c.474 0 .855.08 1.144.239.291.156.517.338.676.547.162.209.288.393.378.552h.089v-3.784h1.487V54h-1.452v-1.188h-.124a4.02 4.02 0 0 1-.388.557 2.154 2.154 0 0 1-.686.547c-.292.155-.67.233-1.134.233zm.329-1.268c.427 0 .788-.112 1.083-.338.299-.228.524-.545.676-.95.156-.404.234-.874.234-1.411 0-.53-.076-.995-.229-1.392-.152-.398-.376-.708-.671-.93-.295-.222-.659-.333-1.093-.333-.448 0-.821.116-1.119.348a2.125 2.125 0 0 0-.676.95 3.876 3.876 0 0 0-.224 1.357c0 .51.076.97.229 1.377.152.408.378.73.676.97.302.235.673.352 1.114.352zM143.243 54v-7.636h1.487V54h-1.487zm.751-8.815a.946.946 0 0 1-.666-.258.841.841 0 0 1-.273-.627.83.83 0 0 1 .273-.626.936.936 0 0 1 .666-.264c.259 0 .479.088.661.264a.823.823 0 0 1 .279.626.835.835 0 0 1-.279.627.926.926 0 0 1-.661.258zm6.3 1.179v1.193h-4.171v-1.193h4.171zm-3.052-1.83h1.486v7.224c0 .288.043.505.13.651a.67.67 0 0 0 .333.293c.139.05.29.075.452.075.119 0 .224-.008.313-.025.09-.016.159-.03.209-.04l.269 1.228a2.916 2.916 0 0 1-.965.16 2.616 2.616 0 0 1-1.094-.21 1.877 1.877 0 0 1-.82-.675c-.209-.305-.313-.688-.313-1.149v-7.532z" />
        <circle cx="68" cy="117" r="16" fill="#2EB67D" />
        <path fill="#fff"
            d="M75.903 121.47c-.19.338-.474.6-.822.757l-5.484 2.546a3.783 3.783 0 0 1-3.194 0l-5.491-2.55a1.764 1.764 0 0 1-.816-.753.625.625 0 1 1 1.09-.611c.06.106.14.18.245.227l5.499 2.553c.67.312 1.47.312 2.14 0l5.492-2.55a.522.522 0 0 0 .251-.231.626.626 0 1 1 1.09.612zm-.239-4.453a.623.623 0 0 0-.85.24.515.515 0 0 1-.252.23l-5.492 2.55c-.67.312-1.47.312-2.14 0l-5.5-2.553a.514.514 0 0 1-.242-.227.626.626 0 0 0-1.09.611c.189.339.473.6.814.754l5.491 2.55a3.786 3.786 0 0 0 3.194 0l5.485-2.547c.348-.157.633-.418.823-.757a.627.627 0 0 0-.24-.851zM59.875 113.4c0-.708.398-1.331 1.04-1.628l5.488-2.545a3.798 3.798 0 0 1 3.193 0l5.488 2.545c.642.297 1.04.921 1.04 1.628 0 .707-.398 1.331-1.04 1.628l-5.488 2.545a3.792 3.792 0 0 1-3.194 0l-5.488-2.545a1.777 1.777 0 0 1-1.039-1.628zm1.25 0a.54.54 0 0 0 .316.495l5.488 2.544a2.54 2.54 0 0 0 2.141 0l5.488-2.544a.537.537 0 0 0 .316-.495.538.538 0 0 0-.316-.495l-5.488-2.544a2.54 2.54 0 0 0-2.142 0l-5.488 2.544a.539.539 0 0 0-.315.495z" />
        <path fill="#000"
            d="M96.415 122h-3.296v-10.182h3.4c.998 0 1.855.204 2.57.612a4.027 4.027 0 0 1 1.646 1.745c.385.755.577 1.662.577 2.719 0 1.061-.194 1.972-.582 2.735a4.074 4.074 0 0 1-1.67 1.759c-.73.408-1.611.612-2.645.612zm-1.76-1.342h1.675c.776 0 1.42-.146 1.934-.438a2.757 2.757 0 0 0 1.154-1.278c.255-.56.382-1.242.382-2.048 0-.799-.127-1.476-.382-2.033a2.703 2.703 0 0 0-1.129-1.268c-.5-.288-1.122-.432-1.864-.432h-1.77v7.497zm11.739 1.496c-.752 0-1.4-.161-1.944-.482a3.278 3.278 0 0 1-1.253-1.367c-.291-.59-.437-1.281-.437-2.073 0-.783.146-1.472.437-2.069a3.403 3.403 0 0 1 1.233-1.397c.531-.334 1.15-.502 1.86-.502.43 0 .848.071 1.252.214a3.03 3.03 0 0 1 1.089.671c.322.305.575.701.761 1.188.185.484.278 1.073.278 1.765v.527h-6.07v-1.113h4.614c0-.391-.08-.738-.239-1.039a1.801 1.801 0 0 0-.671-.721 1.873 1.873 0 0 0-1.004-.264c-.418 0-.783.103-1.094.308a2.079 2.079 0 0 0-.716.796 2.294 2.294 0 0 0-.249 1.059v.87c0 .51.09.944.269 1.302.182.358.436.632.76.821.325.185.705.278 1.139.278.282 0 .539-.04.771-.119a1.6 1.6 0 0 0 .989-.97l1.407.254a2.554 2.554 0 0 1-.607 1.089 2.949 2.949 0 0 1-1.088.721c-.435.169-.93.253-1.487.253zm10.648-5.926-1.347.239a1.603 1.603 0 0 0-.269-.493 1.33 1.33 0 0 0-.487-.382c-.206-.1-.462-.15-.771-.15-.421 0-.772.095-1.054.284-.281.185-.422.426-.422.721 0 .255.094.46.283.616.189.156.494.284.915.383l1.213.278c.703.163 1.226.413 1.571.751s.517.777.517 1.318c0 .457-.133.865-.398 1.223-.262.354-.628.633-1.098.835-.468.202-1.01.303-1.626.303-.855 0-1.553-.182-2.093-.547-.54-.368-.872-.89-.994-1.566l1.436-.219c.09.375.274.658.552.851.279.189.642.283 1.089.283.487 0 .877-.101 1.168-.303.292-.206.438-.456.438-.751a.782.782 0 0 0-.269-.602c-.175-.162-.445-.285-.81-.367l-1.293-.284c-.712-.162-1.239-.421-1.581-.775-.338-.355-.507-.804-.507-1.348 0-.45.126-.845.378-1.183.252-.338.6-.602 1.044-.79.444-.193.953-.289 1.526-.289.826 0 1.475.179 1.949.537.474.355.787.83.94 1.427zm1.783 5.772v-7.636h1.487V122h-1.487zm.751-8.815a.947.947 0 0 1-.666-.258.843.843 0 0 1-.273-.627.83.83 0 0 1 .273-.626.934.934 0 0 1 .666-.263c.259 0 .479.087.661.263a.822.822 0 0 1 .279.626.835.835 0 0 1-.279.627.927.927 0 0 1-.661.258zm5.937 11.838c-.606 0-1.128-.08-1.566-.239-.434-.159-.788-.369-1.063-.631a2.648 2.648 0 0 1-.617-.86l1.278-.527c.089.145.209.3.358.462.152.166.358.307.616.423.262.116.598.174 1.009.174.564 0 1.03-.138 1.397-.413.368-.272.552-.706.552-1.303v-1.501h-.094c-.09.162-.219.343-.388.542a2.096 2.096 0 0 1-.686.517c-.292.146-.671.219-1.139.219a3.177 3.177 0 0 1-1.63-.423c-.481-.285-.862-.704-1.144-1.258-.278-.557-.417-1.241-.417-2.053 0-.812.137-1.508.412-2.088.279-.58.66-1.024 1.144-1.332a2.97 2.97 0 0 1 1.645-.468c.474 0 .857.08 1.149.239.292.156.519.338.681.547.166.209.293.392.383.552h.109v-1.238h1.457v7.805c0 .656-.153 1.195-.458 1.616a2.685 2.685 0 0 1-1.238.934c-.517.203-1.1.304-1.75.304zm-.014-4.37c.427 0 .788-.1 1.083-.299.299-.202.524-.49.677-.865.155-.377.233-.83.233-1.357 0-.514-.076-.966-.229-1.357a2.016 2.016 0 0 0-.671-.915c-.295-.222-.659-.333-1.093-.333-.448 0-.821.116-1.119.348-.298.229-.524.54-.676.935a3.715 3.715 0 0 0-.224 1.322c0 .501.076.94.229 1.318.152.377.378.672.676.885.302.212.673.318 1.114.318zm6.94-3.187V122h-1.487v-7.636h1.427v1.243h.095c.175-.405.45-.73.825-.975.378-.245.853-.368 1.427-.368.52 0 .976.11 1.367.328a2.2 2.2 0 0 1 .91.965c.215.427.323.956.323 1.586V122h-1.487v-4.678c0-.554-.144-.986-.432-1.298-.288-.315-.684-.472-1.188-.472-.345 0-.652.074-.92.224a1.599 1.599 0 0 0-.631.656c-.153.285-.229.63-.229 1.034zm16.258-2.973a1.454 1.454 0 0 0-.656-1.094c-.384-.262-.868-.393-1.452-.393-.417 0-.779.067-1.083.199-.305.13-.542.308-.711.537a1.267 1.267 0 0 0-.249.771c0 .242.056.451.169.626.116.176.267.323.452.443.189.116.392.213.607.293.215.076.423.139.621.189l.995.258c.325.08.658.188.999.324.341.135.658.314.95.537.291.222.527.497.706.825.182.328.273.721.273 1.178 0 .577-.149 1.089-.447 1.536-.295.448-.725.801-1.288 1.059-.56.259-1.238.388-2.033.388-.763 0-1.422-.121-1.979-.363-.557-.242-.993-.585-1.308-1.029-.315-.447-.489-.978-.522-1.591h1.541c.03.368.15.675.358.92.213.242.483.422.811.542.331.116.694.174 1.089.174.434 0 .82-.068 1.158-.204.341-.139.61-.332.805-.577.196-.248.294-.538.294-.87 0-.301-.086-.548-.259-.741a1.91 1.91 0 0 0-.691-.477 6.737 6.737 0 0 0-.979-.333l-1.203-.328c-.816-.222-1.462-.549-1.939-.98-.474-.43-.711-1-.711-1.71 0-.586.159-1.098.477-1.536a3.136 3.136 0 0 1 1.293-1.019c.543-.245 1.156-.368 1.839-.368.69 0 1.298.121 1.825.363.53.242.948.575 1.253.999.304.421.464.905.477 1.452h-1.482zm4.277 10.371c-.222 0-.424-.019-.606-.055a1.934 1.934 0 0 1-.408-.109l.358-1.218c.272.072.514.104.726.094a.863.863 0 0 0 .561-.239c.166-.149.312-.392.438-.73l.184-.508-2.794-7.735h1.591l1.934 5.926h.079l1.934-5.926h1.596l-3.147 8.655a3.437 3.437 0 0 1-.557 1.009 2.156 2.156 0 0 1-.805.627 2.64 2.64 0 0 1-1.084.209zm12.712-8.636-1.347.239a1.6 1.6 0 0 0-.268-.493 1.335 1.335 0 0 0-.488-.382c-.205-.1-.462-.15-.77-.15-.421 0-.772.095-1.054.284-.282.185-.423.426-.423.721 0 .255.095.46.284.616.189.156.494.284.914.383l1.214.278c.702.163 1.226.413 1.571.751.344.338.517.777.517 1.318 0 .457-.133.865-.398 1.223-.262.354-.628.633-1.099.835-.467.202-1.009.303-1.626.303-.855 0-1.552-.182-2.093-.547-.54-.368-.871-.89-.994-1.566l1.437-.219c.089.375.273.658.552.851.278.189.641.283 1.088.283.488 0 .877-.101 1.169-.303.291-.206.437-.456.437-.751a.78.78 0 0 0-.268-.602c-.176-.162-.446-.285-.811-.367l-1.292-.284c-.713-.162-1.24-.421-1.581-.775-.338-.355-.507-.804-.507-1.348 0-.45.126-.845.378-1.183.252-.338.6-.602 1.044-.79.444-.193.953-.289 1.526-.289.825 0 1.475.179 1.949.537.474.355.787.83.939 1.427zm5.349-1.864v1.193h-4.172v-1.193h4.172zm-3.053-1.83h1.487v7.224c0 .288.043.505.129.651a.67.67 0 0 0 .333.293c.139.05.29.075.452.075.12 0 .224-.008.314-.025.089-.016.159-.03.208-.04l.269 1.228a2.928 2.928 0 0 1-.965.159 2.62 2.62 0 0 1-1.093-.208 1.882 1.882 0 0 1-.821-.677c-.209-.304-.313-.687-.313-1.148v-7.532zm7.906 9.62c-.752 0-1.4-.161-1.944-.482a3.278 3.278 0 0 1-1.253-1.367c-.291-.59-.437-1.281-.437-2.073 0-.783.146-1.472.437-2.069a3.403 3.403 0 0 1 1.233-1.397c.531-.334 1.15-.502 1.86-.502.431 0 .848.071 1.253.214.404.143.767.366 1.088.671.322.305.575.701.761 1.188.186.484.278 1.073.278 1.765v.527h-6.07v-1.113h4.614c0-.391-.08-.738-.239-1.039a1.801 1.801 0 0 0-.671-.721 1.873 1.873 0 0 0-1.004-.264c-.418 0-.783.103-1.094.308a2.079 2.079 0 0 0-.716.796 2.294 2.294 0 0 0-.249 1.059v.87c0 .51.09.944.269 1.302.182.358.436.632.761.821.324.185.704.278 1.138.278.282 0 .539-.04.771-.119a1.589 1.589 0 0 0 .989-.97l1.407.254a2.554 2.554 0 0 1-.607 1.089 2.949 2.949 0 0 1-1.088.721c-.435.169-.93.253-1.487.253zm4.926-.154v-7.636h1.427v1.243h.094a1.97 1.97 0 0 1 .781-.985c.361-.238.793-.358 1.297-.358.511 0 .938.12 1.283.358.348.239.605.567.77.985h.08c.182-.408.472-.733.87-.975.398-.245.872-.368 1.422-.368.693 0 1.258.217 1.695.651.441.435.661 1.089.661 1.964V122h-1.486v-4.982c0-.517-.141-.891-.423-1.123a1.535 1.535 0 0 0-1.009-.348c-.484 0-.86.149-1.128.447-.269.295-.403.675-.403 1.139V122h-1.482v-5.076c0-.414-.129-.747-.387-.999-.259-.252-.595-.378-1.01-.378-.281 0-.542.074-.78.224a1.63 1.63 0 0 0-.572.611 1.88 1.88 0 0 0-.214.91V122h-1.486z" />
        <circle cx="68" cy="185" r="16" fill="#F38744" />
        <path fill="#fff"
            d="M68 176.042c-4.94 0-8.959 4.019-8.959 8.958s4.018 8.958 8.958 8.958 8.959-4.019 8.959-8.958-4.019-8.958-8.959-8.958zm7.676 8.333h-3.375c-.11-2.286-.813-4.615-2.03-6.741a7.724 7.724 0 0 1 5.405 6.741zm-7.068-7.053c1.463 2.176 2.316 4.645 2.443 7.053h-6.103c.126-2.408.98-4.877 2.443-7.053.202-.015.403-.03.608-.03.205 0 .408.015.609.03zm-2.881.312c-1.217 2.126-1.92 4.455-2.03 6.741h-3.374a7.724 7.724 0 0 1 5.404-6.741zm-5.404 7.991h3.375c.109 2.286.812 4.615 2.029 6.741a7.725 7.725 0 0 1-5.404-6.741zm7.068 7.052c-1.463-2.175-2.316-4.644-2.443-7.052h6.103c-.127 2.408-.98 4.877-2.443 7.052a7.664 7.664 0 0 1-.609.031 7.64 7.64 0 0 1-.608-.031zm2.88-.311c1.218-2.126 1.92-4.455 2.03-6.741h3.375a7.725 7.725 0 0 1-5.404 6.741z" />
        <path fill="#000"
            d="M98.672 182.493a1.453 1.453 0 0 0-.656-1.094c-.385-.262-.869-.393-1.452-.393-.418 0-.779.067-1.084.199-.305.13-.542.308-.71.537a1.269 1.269 0 0 0-.25.771c0 .242.057.451.17.626.116.176.266.323.452.443.189.116.391.213.607.293.215.076.422.139.621.189l.994.258c.325.08.658.188 1 .324.341.135.657.314.95.537.29.222.526.497.705.825.182.328.274.721.274 1.178 0 .577-.15 1.089-.448 1.536-.295.448-.724.801-1.287 1.059-.56.259-1.238.388-2.034.388-.762 0-1.422-.121-1.978-.363-.557-.242-.993-.585-1.308-1.029-.315-.447-.489-.978-.522-1.591h1.541c.03.368.15.675.358.92.212.242.482.422.81.542.332.116.695.174 1.09.174.433 0 .82-.068 1.158-.204.341-.139.61-.332.805-.577.196-.248.293-.538.293-.87 0-.301-.086-.548-.258-.741a1.913 1.913 0 0 0-.691-.477 6.73 6.73 0 0 0-.98-.333l-1.203-.328c-.815-.222-1.461-.549-1.939-.98-.474-.43-.71-1-.71-1.71 0-.586.158-1.098.477-1.536a3.14 3.14 0 0 1 1.292-1.019c.544-.245 1.157-.368 1.84-.368.69 0 1.297.121 1.824.363.53.242.948.575 1.253.999.305.421.464.905.477 1.452h-1.481zm3.456 7.507v-10.182h6.384v1.323h-4.847v3.102h4.514v1.317h-4.514v3.118h4.907V190h-6.444zm17.28-5.091c0 1.087-.198 2.022-.596 2.804-.398.779-.943 1.379-1.636 1.8-.689.417-1.473.626-2.351.626-.882 0-1.669-.209-2.362-.626-.689-.421-1.233-1.023-1.631-1.805-.397-.782-.596-1.715-.596-2.799 0-1.087.199-2.02.596-2.799.398-.782.942-1.382 1.631-1.8.693-.421 1.48-.631 2.362-.631.878 0 1.662.21 2.351.631.693.418 1.238 1.018 1.636 1.8.398.779.596 1.712.596 2.799zm-1.521 0c0-.829-.134-1.526-.403-2.093-.265-.57-.629-1.001-1.093-1.293a2.842 2.842 0 0 0-1.566-.442c-.587 0-1.111.147-1.571.442-.461.292-.826.723-1.094 1.293-.265.567-.398 1.264-.398 2.093s.133 1.528.398 2.098c.268.567.633.998 1.094 1.293.46.291.984.437 1.571.437.583 0 1.105-.146 1.566-.437.464-.295.828-.726 1.093-1.293.269-.57.403-1.269.403-2.098z" />
        <rect width="187" height="44" x="40" y="231" fill="#FAFAFA" rx="6" />
        <rect width="186" height="43" x="40.5" y="231.5" stroke="#000" stroke-opacity=".05" rx="5.5" />
        <circle cx="68" cy="253" r="16" fill="#A259FF" />
        <path fill="#fff"
            d="M68 261.125a.625.625 0 0 1-.6-.453l-.65-2.273a6.006 6.006 0 0 0-4.15-4.149l-2.272-.649a.625.625 0 0 1 0-1.202l2.273-.649a6.006 6.006 0 0 0 4.149-4.149l.65-2.273a.625.625 0 0 1 1.2 0l.65 2.273a6.006 6.006 0 0 0 4.15 4.149l2.272.649a.625.625 0 0 1 0 1.202l-2.273.649a6.004 6.004 0 0 0-4.149 4.149l-.65 2.273a.625.625 0 0 1-.6.453zM62.775 253l.17.048a7.251 7.251 0 0 1 5.008 5.009l.048.168.048-.168a7.251 7.251 0 0 1 5.008-5.009l.168-.048-.17-.048a7.251 7.251 0 0 1-5.008-5.009l-.047-.167-.048.168a7.25 7.25 0 0 1-5.009 5.008l-.168.048z" />
        <path fill="#000"
            d="M94.655 247.818V258h-1.536v-10.182h1.536zm3.604 5.648V258h-1.486v-7.636H98.2v1.243h.094c.176-.405.45-.73.825-.975.378-.245.854-.368 1.427-.368.521 0 .976.11 1.367.328.391.216.695.537.91.965.216.427.323.956.323 1.586V258h-1.486v-4.678c0-.554-.144-.986-.433-1.298-.288-.315-.684-.472-1.188-.472-.345 0-.651.074-.92.224a1.604 1.604 0 0 0-.631.656c-.153.285-.229.63-.229 1.034zm10.446-3.102v1.193h-4.172v-1.193h4.172zm-3.053-1.83h1.486v7.224c0 .288.044.505.13.651a.67.67 0 0 0 .333.293c.139.05.29.075.452.075.12 0 .224-.008.313-.025.09-.016.16-.03.209-.04l.269 1.228a2.928 2.928 0 0 1-.965.159 2.62 2.62 0 0 1-1.093-.208 1.876 1.876 0 0 1-.821-.677c-.209-.304-.313-.687-.313-1.148v-7.532zm7.906 9.62c-.752 0-1.4-.161-1.944-.482a3.278 3.278 0 0 1-1.253-1.367c-.291-.59-.437-1.281-.437-2.073 0-.783.146-1.472.437-2.069a3.403 3.403 0 0 1 1.233-1.397c.531-.334 1.15-.502 1.86-.502.431 0 .848.071 1.252.214a3.03 3.03 0 0 1 1.089.671c.322.305.575.701.761 1.188.186.484.278 1.073.278 1.765v.527h-6.07v-1.113h4.614c0-.391-.08-.738-.239-1.039a1.801 1.801 0 0 0-.671-.721 1.873 1.873 0 0 0-1.004-.264c-.418 0-.783.103-1.094.308a2.079 2.079 0 0 0-.716.796 2.294 2.294 0 0 0-.249 1.059v.87c0 .51.09.944.269 1.302.182.358.436.632.76.821.325.185.705.278 1.139.278.282 0 .539-.04.771-.119a1.6 1.6 0 0 0 .989-.97l1.407.254a2.554 2.554 0 0 1-.607 1.089 2.949 2.949 0 0 1-1.088.721c-.435.169-.93.253-1.487.253zm4.926-.154v-7.636h1.436v1.213h.08c.139-.411.384-.734.736-.97a2.107 2.107 0 0 1 1.203-.358 7.15 7.15 0 0 1 .631.035v1.422a2.536 2.536 0 0 0-.318-.055 3.058 3.058 0 0 0-.457-.035 1.94 1.94 0 0 0-.94.224 1.66 1.66 0 0 0-.885 1.497V258h-1.486zm7.527.169a3.12 3.12 0 0 1-1.313-.268 2.218 2.218 0 0 1-.93-.791c-.225-.345-.338-.767-.338-1.268 0-.431.083-.785.249-1.064.166-.278.389-.498.671-.661a3.53 3.53 0 0 1 .945-.368 9.313 9.313 0 0 1 1.064-.189l1.113-.129c.285-.036.492-.094.622-.174.129-.079.194-.209.194-.388v-.034c0-.435-.123-.771-.368-1.01-.242-.238-.603-.358-1.084-.358-.501 0-.895.111-1.183.333-.285.219-.483.463-.592.731l-1.397-.318c.166-.464.408-.838.726-1.124a2.939 2.939 0 0 1 1.109-.626 4.308 4.308 0 0 1 1.317-.199c.305 0 .628.037.97.11.344.069.666.198.964.387.302.189.549.459.741.811.192.348.288.8.288 1.357V258h-1.452v-1.044h-.059a2.13 2.13 0 0 1-.433.567 2.308 2.308 0 0 1-.741.462c-.301.123-.662.184-1.083.184zm.323-1.193c.411 0 .762-.081 1.054-.244.295-.162.518-.374.671-.636a1.65 1.65 0 0 0 .234-.85v-.985c-.053.053-.156.103-.309.15a4.734 4.734 0 0 1-.512.114c-.192.03-.379.058-.561.084l-.458.06a3.66 3.66 0 0 0-.79.184c-.236.086-.425.21-.567.373-.139.159-.209.371-.209.636 0 .368.136.647.408.835.272.186.618.279 1.039.279zm8.642 1.178c-.739 0-1.376-.167-1.909-.502a3.32 3.32 0 0 1-1.223-1.397c-.285-.593-.428-1.273-.428-2.038 0-.776.146-1.46.438-2.054a3.352 3.352 0 0 1 1.232-1.397c.531-.334 1.156-.502 1.875-.502.58 0 1.097.108 1.551.323a2.714 2.714 0 0 1 1.601 2.243h-1.447a1.735 1.735 0 0 0-.547-.925c-.282-.259-.659-.388-1.133-.388-.415 0-.778.109-1.089.328-.308.216-.549.524-.721.925-.172.398-.259.868-.259 1.412 0 .557.085 1.037.254 1.442.169.404.408.717.716.939.311.222.678.333 1.099.333.281 0 .537-.051.765-.154a1.57 1.57 0 0 0 .582-.452c.159-.196.27-.431.333-.706h1.447a2.814 2.814 0 0 1-.482 1.322 2.783 2.783 0 0 1-1.079.915c-.448.222-.973.333-1.576.333zm8.291-7.79v1.193h-4.171v-1.193h4.171zm-3.053-1.83h1.487v7.224c0 .288.043.505.129.651a.67.67 0 0 0 .333.293c.14.05.29.075.453.075.119 0 .223-.008.313-.025.089-.016.159-.03.209-.04l.268 1.228a2.925 2.925 0 0 1-.964.159 2.625 2.625 0 0 1-1.094-.208 1.88 1.88 0 0 1-.82-.677c-.209-.304-.314-.687-.314-1.148v-7.532zm4.697 9.466v-7.636h1.487V258h-1.487zm.751-8.815a.947.947 0 0 1-.666-.258.844.844 0 0 1-.274-.627.83.83 0 0 1 .274-.626.934.934 0 0 1 .666-.263c.259 0 .479.087.661.263a.822.822 0 0 1 .279.626.835.835 0 0 1-.279.627.927.927 0 0 1-.661.258zm5.952 8.969c-.716 0-1.34-.164-1.874-.492a3.315 3.315 0 0 1-1.243-1.377c-.295-.59-.442-1.28-.442-2.068 0-.793.147-1.485.442-2.079a3.317 3.317 0 0 1 1.243-1.382c.534-.328 1.158-.492 1.874-.492.716 0 1.341.164 1.875.492.533.329.948.789 1.243 1.382.295.594.442 1.286.442 2.079 0 .788-.147 1.478-.442 2.068a3.322 3.322 0 0 1-1.243 1.377c-.534.328-1.159.492-1.875.492zm.005-1.248c.464 0 .849-.122 1.154-.368.305-.245.53-.571.676-.979a3.9 3.9 0 0 0 .224-1.347c0-.488-.075-.935-.224-1.343a2.188 2.188 0 0 0-.676-.989c-.305-.249-.69-.373-1.154-.373-.467 0-.855.124-1.163.373a2.22 2.22 0 0 0-.681.989 3.958 3.958 0 0 0-.219 1.343c0 .49.073.939.219 1.347.149.408.376.734.681.979.308.246.696.368 1.163.368zm6.701-3.44V258h-1.487v-7.636h1.427v1.243h.095c.175-.405.45-.73.825-.975.378-.245.853-.368 1.427-.368.52 0 .976.11 1.367.328a2.2 2.2 0 0 1 .91.965c.215.427.323.956.323 1.586V258h-1.487v-4.678c0-.554-.144-.986-.432-1.298-.289-.315-.685-.472-1.188-.472-.345 0-.652.074-.92.224a1.607 1.607 0 0 0-.632.656c-.152.285-.228.63-.228 1.034zM172.321 258h-3.296v-10.182h3.4c.998 0 1.855.204 2.571.612a4.025 4.025 0 0 1 1.645 1.745c.385.755.577 1.662.577 2.719 0 1.061-.194 1.972-.582 2.735a4.073 4.073 0 0 1-1.67 1.759c-.729.408-1.611.612-2.645.612zm-1.76-1.342h1.676c.775 0 1.42-.146 1.933-.438a2.756 2.756 0 0 0 1.154-1.278c.255-.56.383-1.242.383-2.048 0-.799-.128-1.476-.383-2.033a2.701 2.701 0 0 0-1.129-1.268c-.5-.288-1.122-.432-1.864-.432h-1.77v7.497zm11.739 1.496c-.752 0-1.4-.161-1.944-.482a3.269 3.269 0 0 1-1.252-1.367c-.292-.59-.438-1.281-.438-2.073 0-.783.146-1.472.438-2.069a3.393 3.393 0 0 1 1.232-1.397c.531-.334 1.151-.502 1.86-.502.431 0 .848.071 1.253.214.404.143.767.366 1.088.671.322.305.576.701.761 1.188.186.484.279 1.073.279 1.765v.527h-6.071v-1.113h4.614c0-.391-.08-.738-.239-1.039a1.801 1.801 0 0 0-.671-.721 1.873 1.873 0 0 0-1.004-.264c-.418 0-.782.103-1.094.308a2.079 2.079 0 0 0-.716.796 2.294 2.294 0 0 0-.248 1.059v.87c0 .51.089.944.268 1.302.182.358.436.632.761.821.324.185.704.278 1.138.278.282 0 .539-.04.771-.119a1.589 1.589 0 0 0 .989-.97l1.407.254a2.562 2.562 0 0 1-.606 1.089 2.961 2.961 0 0 1-1.089.721c-.434.169-.93.253-1.487.253zm10.648-5.926-1.347.239a1.582 1.582 0 0 0-.269-.493 1.322 1.322 0 0 0-.487-.382c-.205-.1-.462-.15-.77-.15-.421 0-.773.095-1.054.284-.282.185-.423.426-.423.721 0 .255.094.46.283.616.189.156.494.284.915.383l1.213.278c.703.163 1.227.413 1.571.751.345.338.517.777.517 1.318 0 .457-.132.865-.397 1.223-.262.354-.629.633-1.099.835-.467.202-1.009.303-1.626.303-.855 0-1.553-.182-2.093-.547-.54-.368-.872-.89-.994-1.566l1.437-.219c.089.375.273.658.551.851.279.189.642.283 1.089.283.487 0 .877-.101 1.169-.303.291-.206.437-.456.437-.751a.78.78 0 0 0-.268-.602c-.176-.162-.446-.285-.811-.367l-1.292-.284c-.713-.162-1.24-.421-1.581-.775-.338-.355-.507-.804-.507-1.348 0-.45.125-.845.377-1.183.252-.338.6-.602 1.044-.79.445-.193.953-.289 1.527-.289.825 0 1.475.179 1.949.537a2.5 2.5 0 0 1 .939 1.427zm1.784 5.772v-7.636h1.486V258h-1.486zm.75-8.815a.947.947 0 0 1-.666-.258.843.843 0 0 1-.273-.627.83.83 0 0 1 .273-.626.934.934 0 0 1 .666-.263c.259 0 .479.087.662.263a.824.824 0 0 1 .278.626.837.837 0 0 1-.278.627.93.93 0 0 1-.662.258zm5.938 11.838c-.607 0-1.129-.08-1.566-.239-.434-.159-.789-.369-1.064-.631a2.663 2.663 0 0 1-.617-.86l1.278-.527c.089.145.209.3.358.462.152.166.358.307.616.423.262.116.599.174 1.01.174.563 0 1.029-.138 1.397-.413.368-.272.552-.706.552-1.303v-1.501h-.095a3.387 3.387 0 0 1-.388.542 2.086 2.086 0 0 1-.686.517c-.291.146-.671.219-1.138.219a3.178 3.178 0 0 1-1.631-.423c-.481-.285-.862-.704-1.143-1.258-.279-.557-.418-1.241-.418-2.053 0-.812.137-1.508.413-2.088.278-.58.659-1.024 1.143-1.332a2.97 2.97 0 0 1 1.646-.468c.474 0 .856.08 1.148.239.292.156.519.338.681.547.166.209.294.392.383.552h.109v-1.238h1.457v7.805c0 .656-.152 1.195-.457 1.616a2.69 2.69 0 0 1-1.238.934c-.517.203-1.101.304-1.75.304zm-.015-4.37c.427 0 .789-.1 1.084-.299a1.86 1.86 0 0 0 .676-.865c.156-.377.233-.83.233-1.357 0-.514-.076-.966-.228-1.357-.153-.391-.376-.696-.671-.915-.295-.222-.66-.333-1.094-.333-.448 0-.82.116-1.119.348-.298.229-.523.54-.676.935a3.715 3.715 0 0 0-.224 1.322c0 .501.077.94.229 1.318.153.377.378.672.676.885.302.212.673.318 1.114.318zm6.94-3.187V258h-1.486v-7.636h1.427v1.243h.094c.176-.405.451-.73.825-.975.378-.245.854-.368 1.427-.368.52 0 .976.11 1.367.328.391.216.695.537.91.965.216.427.323.956.323 1.586V258h-1.486v-4.678c0-.554-.144-.986-.433-1.298-.288-.315-.684-.472-1.188-.472-.345 0-.651.074-.92.224a1.605 1.605 0 0 0-.631.656c-.153.285-.229.63-.229 1.034z" />
        <circle cx="68" cy="321" r="16" fill="#ECB22E" />
        <path fill="#fff"
            d="M63 313.708a3.129 3.129 0 0 0-3.125 3.125A3.128 3.128 0 0 0 63 319.958a3.128 3.128 0 0 0 3.125-3.125A3.129 3.129 0 0 0 63 313.708zm0 5a1.876 1.876 0 0 1 0-3.75 1.876 1.876 0 0 1 0 3.75zm10 3.334a3.128 3.128 0 0 0-3.125 3.125A3.129 3.129 0 0 0 73 328.292a3.129 3.129 0 0 0 3.125-3.125A3.128 3.128 0 0 0 73 322.042zm0 5a1.877 1.877 0 0 1-1.875-1.875c0-1.034.84-1.875 1.875-1.875 1.034 0 1.875.841 1.875 1.875s-.84 1.875-1.875 1.875zm-2.5-9.584h5a.625.625 0 0 0 0-1.25h-5a.625.625 0 0 0 0 1.25zm-5 7.084h-5a.625.625 0 0 0 0 1.25h5a.625.625 0 0 0 0-1.25z" />
        <path fill="#000"
            d="M93.979 326h-1.631l3.664-10.182h1.775L101.45 326h-1.63l-2.88-8.332h-.079L93.98 326zm.273-3.987h5.29v1.292h-5.29v-1.292zm10.037-.547V326h-1.487v-7.636h1.427v1.243h.094a2.18 2.18 0 0 1 .826-.975c.377-.245.853-.368 1.426-.368.521 0 .977.11 1.368.328.391.216.694.537.909.965.216.427.324.956.324 1.586V326h-1.487v-4.678c0-.554-.144-.986-.432-1.298-.289-.315-.685-.472-1.189-.472a1.85 1.85 0 0 0-.919.224 1.6 1.6 0 0 0-.632.656c-.152.285-.228.63-.228 1.034zm6.88 4.534v-7.636h1.487V326h-1.487zm.751-8.815a.944.944 0 0 1-.666-.258.84.84 0 0 1-.274-.627c0-.245.091-.454.274-.626a.931.931 0 0 1 .666-.263c.258 0 .479.087.661.263a.822.822 0 0 1 .279.626.835.835 0 0 1-.279.627.929.929 0 0 1-.661.258zm2.736 8.815v-7.636h1.426v1.243h.095c.159-.421.419-.75.78-.985.362-.238.794-.358 1.298-.358.51 0 .938.12 1.283.358.348.239.605.567.77.985h.08c.182-.408.472-.733.87-.975.398-.245.871-.368 1.422-.368.692 0 1.258.217 1.695.651.441.435.661 1.089.661 1.964V326h-1.486v-4.982c0-.517-.141-.891-.423-1.123a1.537 1.537 0 0 0-1.009-.348c-.484 0-.86.149-1.129.447-.268.295-.402.675-.402 1.139V326h-1.482v-5.076c0-.414-.129-.747-.388-.999-.258-.252-.595-.378-1.009-.378-.282 0-.542.074-.78.224a1.63 1.63 0 0 0-.572.611 1.868 1.868 0 0 0-.214.91V326h-1.486zm14.595.169a3.12 3.12 0 0 1-1.313-.268 2.21 2.21 0 0 1-.929-.791c-.226-.345-.338-.767-.338-1.268 0-.431.082-.785.248-1.064.166-.278.39-.498.671-.661a3.53 3.53 0 0 1 .945-.368 9.352 9.352 0 0 1 1.064-.189l1.114-.129c.285-.036.492-.094.621-.174.129-.079.194-.209.194-.388v-.034c0-.435-.123-.771-.368-1.01-.242-.238-.603-.358-1.084-.358-.5 0-.895.111-1.183.333-.285.219-.482.463-.592.731l-1.397-.318c.166-.464.408-.838.726-1.124a2.947 2.947 0 0 1 1.109-.626 4.313 4.313 0 0 1 1.317-.199c.305 0 .628.037.97.11.344.069.666.198.964.387.302.189.549.459.741.811.192.348.288.8.288 1.357V326h-1.451v-1.044h-.06a2.11 2.11 0 0 1-.433.567 2.314 2.314 0 0 1-.74.462c-.302.123-.663.184-1.084.184zm.323-1.193c.411 0 .762-.081 1.054-.244.295-.162.519-.374.671-.636a1.65 1.65 0 0 0 .234-.85v-.985c-.053.053-.156.103-.308.15-.15.043-.32.081-.512.114-.193.03-.38.058-.562.084l-.458.06a3.674 3.674 0 0 0-.79.184c-.235.086-.424.21-.567.373-.139.159-.209.371-.209.636 0 .368.136.647.408.835.272.186.618.279 1.039.279zm8.99-6.612v1.193h-4.171v-1.193h4.171zm-3.053-1.83h1.487v7.224c0 .288.043.505.129.651a.67.67 0 0 0 .333.293c.139.05.29.075.453.075.119 0 .223-.008.313-.025.089-.016.159-.03.209-.04l.268 1.228a2.925 2.925 0 0 1-.964.159 2.625 2.625 0 0 1-1.094-.208 1.874 1.874 0 0 1-.82-.677c-.209-.304-.314-.687-.314-1.148v-7.532zm4.697 9.466v-7.636h1.487V326h-1.487zm.751-8.815a.944.944 0 0 1-.666-.258.84.84 0 0 1-.274-.627c0-.245.091-.454.274-.626a.931.931 0 0 1 .666-.263c.259 0 .479.087.661.263a.822.822 0 0 1 .279.626.835.835 0 0 1-.279.627.927.927 0 0 1-.661.258zm5.952 8.969c-.716 0-1.34-.164-1.874-.492a3.315 3.315 0 0 1-1.243-1.377c-.295-.59-.442-1.28-.442-2.068 0-.793.147-1.485.442-2.079a3.317 3.317 0 0 1 1.243-1.382c.534-.328 1.158-.492 1.874-.492.716 0 1.341.164 1.875.492.533.329.947.789 1.242 1.382.295.594.443 1.286.443 2.079 0 .788-.148 1.478-.443 2.068a3.32 3.32 0 0 1-1.242 1.377c-.534.328-1.159.492-1.875.492zm.005-1.248c.464 0 .849-.122 1.154-.368.305-.245.53-.571.676-.979a3.9 3.9 0 0 0 .223-1.347c0-.488-.074-.935-.223-1.343a2.188 2.188 0 0 0-.676-.989c-.305-.249-.69-.373-1.154-.373-.467 0-.855.124-1.163.373a2.22 2.22 0 0 0-.681.989 3.958 3.958 0 0 0-.219 1.343c0 .49.073.939.219 1.347.149.408.376.734.681.979.308.246.696.368 1.163.368zm6.701-3.44V326h-1.487v-7.636h1.427v1.243h.094a2.18 2.18 0 0 1 .826-.975c.378-.245.853-.368 1.427-.368.52 0 .976.11 1.367.328a2.2 2.2 0 0 1 .91.965c.215.427.323.956.323 1.586V326h-1.487v-4.678c0-.554-.144-.986-.432-1.298-.289-.315-.685-.472-1.189-.472a1.85 1.85 0 0 0-.919.224 1.607 1.607 0 0 0-.632.656c-.152.285-.228.63-.228 1.034zM223.8 265.56l10.61 9.18c1.19 1.03.46 2.98-1.11 2.98h-4.81c-.86 0-1.67.37-2.24 1.01l-3.28 3.69c-1.04 1.17-2.97.43-2.97-1.13V267.3c0-1.97 2.31-3.02 3.8-1.74z" />
    </g>
    <defs>
        <filter id="a" width="267" height="424" x="0" y="0" color-interpolation-filters="sRGB"
            filterUnits="userSpaceOnUse">
            <feFlood flood-opacity="0" result="BackgroundImageFix" />
            <feColorMatrix in="SourceAlpha" result="hardAlpha" values="0 0 0 0 0 0 0 0 0 0 0 0 0 0 0 0 0 0 127 0" />
            <feOffset dy="3" />
            <feGaussianBlur stdDeviation="3" />
            <feColorMatrix values="0 0 0 0 0 0 0 0 0 0 0 0 0 0 0 0 0 0 0.05 0" />
            <feBlend in2="BackgroundImageFix" result="effect1_dropShadow_84_585" />
            <feColorMatrix in="SourceAlpha" result="hardAlpha" values="0 0 0 0 0 0 0 0 0 0 0 0 0 0 0 0 0 0 127 0" />
            <feOffset dy="10" />
            <feGaussianBlur stdDeviation="5" />
            <feColorMatrix values="0 0 0 0 0 0 0 0 0 0 0 0 0 0 0 0 0 0 0.04 0" />
            <feBlend in2="effect1_dropShadow_84_585" result="effect2_dropShadow_84_585" />
            <feColorMatrix in="SourceAlpha" result="hardAlpha" values="0 0 0 0 0 0 0 0 0 0 0 0 0 0 0 0 0 0 127 0" />
            <feOffset dy="23" />
            <feGaussianBlur stdDeviation="7" />
            <feColorMatrix values="0 0 0 0 0 0 0 0 0 0 0 0 0 0 0 0 0 0 0.03 0" />
            <feBlend in2="effect2_dropShadow_84_585" result="effect3_dropShadow_84_585" />
            <feColorMatrix in="SourceAlpha" result="hardAlpha" values="0 0 0 0 0 0 0 0 0 0 0 0 0 0 0 0 0 0 127 0" />
            <feOffset dy="41" />
            <feGaussianBlur stdDeviation="8" />
            <feColorMatrix values="0 0 0 0 0 0 0 0 0 0 0 0 0 0 0 0 0 0 0.01 0" />
            <feBlend in2="effect3_dropShadow_84_585" result="effect4_dropShadow_84_585" />
            <feBlend in="SourceGraphic" in2="effect4_dropShadow_84_585" result="shape" />
        </filter>
    </defs>
</svg>